<?xml version="1.0" encoding="UTF-8"?><svg id="a" xmlns="http://www.w3.org/2000/svg" width="100mm" height="100mm" viewBox="0 0 283.46 283.46"><rect stroke-width="0" fill="#038" width="283.46" height="283.46"/><polygon stroke-width="0" fill="#fff" points="32.71 218.56 54.44 218.56 54.44 227.86 44.59 227.86 44.59 231.21 53.24 231.21 53.24 239.65 44.59 239.65 44.59 251.01 32.71 251.01 32.71 218.56"/><polygon stroke-width="0" fill="#fff" points="93.7 218.56 105.49 218.56 105.49 240.6 115.39 240.6 115.39 251.01 93.7 251.01 93.7 218.56"/><polygon stroke-width="0" fill="#fff" points="118.62 218.56 130.41 218.56 130.41 240.6 140.31 240.6 140.31 251.01 118.62 251.01 118.62 218.56"/><polygon stroke-width="0" fill="#fff" points="163.12 231.65 163.12 218.56 167.17 218.56 167.17 251.01 163.12 251.01 163.12 235.44 147.67 235.44 147.67 251.01 143.62 251.01 143.62 218.56 147.67 218.56 147.67 231.65 163.12 231.65"/><path stroke-width="0" fill="#fff" d="M192.51,242.88l3.7,8.14h4.35l-15.5-33.83-15.5,33.83h4.35l3.7-8.14h14.89ZM190.83,239.18h-11.54l5.77-13.13,5.77,13.13Z"/><path stroke-width="0" fill="#fff" d="M88.49,218.56v19.2c0,9.47-5.94,13.77-15.02,13.77s-15.02-4.3-15.02-13.77v-19.2h11.79v18.08c0,2.54.09,4.78,3.23,4.78s3.23-2.24,3.23-4.78v-18.08h11.79Z"/><path stroke-width="0" fill="#fff" d="M206.76,218.56v19.16c0,5.29,1.59,10.2,7.83,10.2s7.83-4.91,7.83-10.2v-19.16h4.05v20.53c0,7.14-4.43,12.61-11.88,12.61s-11.88-5.47-11.88-12.61v-20.53h4.05Z"/><path stroke-width="0" fill="#fff" d="M246.48,224.72c-1.2-2.02-2.75-3.06-5.21-3.06-2.58,0-5.42,1.76-5.42,4.61,0,2.54,2.5,3.87,4.52,4.65l2.32.9c4.6,1.81,8.05,4.35,8.05,9.77,0,5.9-4.56,10.11-10.37,10.11-5.25,0-9.34-3.87-10.03-9.08l4.09-.86c-.04,3.57,2.8,6.16,6.29,6.16s5.98-2.93,5.98-6.33-2.8-4.99-5.59-6.16l-2.24-.95c-3.7-1.59-7.06-3.7-7.06-8.22,0-5.25,4.65-8.39,9.55-8.39,3.62,0,6.59,1.76,8.35,4.91l-3.23,1.94Z"/></svg>
